PathFileType	4	(X/Y/Z)	S01_0016_Gait_markers.trc
DataRate	CameraRate	NumFrames	NumMarkers	Units	OrigDataRate	OrigDataStartFrame	OrigNumFrames
250.000000	250.000000	4	54	mm	250.000000	89	356
Frame#	Time	HEAD_ANT			R_HEAD			L_HEAD			C7			R_BACK			L_BACK			STERNUM			R_ACROMION			R_HUM_PROX			R_HUM_ANT			R_HUM_POST			R_ELBOW_LAT			R_ELBOW_MED			R_FOREARM			R_WIRST_LAT			R_WRITS_MED			R_HAND			L_ACROMION			L_HUM_PROX			L_HUM_ANT			L_HUM_POST			L_ELBOW_LAT			L_ELBOW_MED			L_FOREARM			L_WRIST_LAT			L_WIRST_MED			L_HAND			R_ILIAC			SACRUM			L_ILIAC			R_GTROCH			R_THIGH__1			R_THIGH_2			R_THIGH_3			R_THIGH_4			R_SHANK_1			R_SHANK_2			R_SHANK_3			R_SHANK_4			R_HEEL			R_FOOT_LAT			R_FOOT_MED			L_GTROCH			L_THIGH_1			L_THIGH_2			L_THIGH_3			L_THIGH_4			L_SHANK_1			L_SHANK_2			L_SHANK_3			L_SHANK_4			L_HEEL			L_FOOT_LAT			L_FOOT_MED			
		X1	Y1	Z1	X2	Y2	Z2	X3	Y3	Z3	X4	Y4	Z4	X5	Y5	Z5	X6	Y6	Z6	X7	Y7	Z7	X8	Y8	Z8	X9	Y9	Z9	X10	Y10	Z10	X11	Y11	Z11	X12	Y12	Z12	X13	Y13	Z13	X14	Y14	Z14	X15	Y15	Z15	X16	Y16	Z16	X17	Y17	Z17	X18	Y18	Z18	X19	Y19	Z19	X20	Y20	Z20	X21	Y21	Z21	X22	Y22	Z22	X23	Y23	Z23	X24	Y24	Z24	X25	Y25	Z25	X26	Y26	Z26	X27	Y27	Z27	X28	Y28	Z28	X29	Y29	Z29	X30	Y30	Z30	X31	Y31	Z31	X32	Y32	Z32	X33	Y33	Z33	X34	Y34	Z34	X35	Y35	Z35	X36	Y36	Z36	X37	Y37	Z37	X38	Y38	Z38	X39	Y39	Z39	X40	Y40	Z40	X41	Y41	Z41	X42	Y42	Z42	X43	Y43	Z43	X44	Y44	Z44	X45	Y45	Z45	X46	Y46	Z46	X47	Y47	Z47	X48	Y48	Z48	X49	Y49	Z49	X50	Y50	Z50	X51	Y51	Z51	X52	Y52	Z52	X53	Y53	Z53	X54	Y54	Z54	

90	0.356	520.5794677734375	1737.301635742188	-303.5672912597652	467.0995483398438	1680.654541015625	-226.9300689697262	463.3367004394531	1687.783935546875	-374.2392883300777	333.79052734375	1512.1630859375	-307.4985961914059	261.3197326660156	1314.329345703125	-247.4850158691403	261.220703125	1323.934204101562	-390.2437744140622	511.2921752929688	1349.263793945312	-309.6898498535153	408.1564331054688	1460.683227539062	-137.4400329589841	364.5648193359375	1300.21142578125	-52.97410964965791	423.4363403320312	1213.05810546875	-49.6652641296384	301.8403625488281	1217.99560546875	-43.76890563964817	345.3074645996094	1110.812377929688	-39.3207397460935	323.5713500976562	1108.305053710938	-119.503967285156	446.1356201171875	926.0684204101562	-40.71712112426737	485.1439514160156	861.5897216796875	-83.78804779052716	417.2386779785156	837.5914916992188	-47.10312271118146	486.4191284179688	771.990234375	-30.63460922241194	414.5047607421875	1471.421875	-475.2637329101559	392.46435546875	1309.67724609375	-576.6069946289059	453.8360595703125	1228.930541992188	-578.608459472656	333.6331481933594	1233.582397460938	-605.4851074218748	392.36474609375	1128.3603515625	-616.7503662109373	338.6598205566406	1120.561767578125	-560.338195800781	499.3944396972656	953.4174804687501	-606.147766113281	530.6123046875	891.1004638671876	-555.842590332031	487.3090515136719	872.4370727539064	-620.7593994140623	560.0767211914062	812.7268066406251	-604.3183593749998	407.621337890625	1061.505981445312	-149.7201690673826	277.423828125	1036.565551757812	-321.6291809082029	394.5318603515625	1056.071044921875	-496.968566894531	373.1453857421875	919.1221313476562	-136.9401855468748	462.9259948730469	643.7959594726562	-172.8414001464842	515.43505859375	670.440673828125	-173.5157165527342	534.8060302734375	573.0119018554688	-215.1669464111327	473.0747680664062	565.4035034179688	-198.2501983642577	470.2645874023438	342.1335144042969	-205.1934204101562	523.6765747070312	321.7942504882813	-225.4363861083984	517.2032470703125	238.4937896728516	-246.2575073242187	454.7459411621094	244.4940795898438	-230.5175323486328	404.1438903808594	40.95580673217781	-321.5258483886719	567.9257202148438	19.2621631622315	-238.0402069091797	622.6503295898438	31.55624961853035	-340.8984375	357.5390319824219	938.5844726562501	-501.5535888671873	454.75341796875	652.7277221679689	-512.9251708984374	400.5981140136719	673.0252075195314	-519.6163940429686	390.3712768554688	567.9990844726564	-502.389434814453	454.2519836425781	570.5330810546876	-502.8077087402343	271.74658203125	360.0684814453126	-502.4541320800781	220.3966217041016	392.2591247558595	-503.221710205078	151.1209869384766	341.1557922363282	-485.3960266113281	194.765380859375	293.9673461914064	-481.3542480468749	-4.735483646392822	272.3523254394532	-412.0392761230468	28.02864646911621	102.8525009155274	-479.9235229492188	51.22380447387695	77.80561065673837	-385.4956970214844	
91	0.36	526.1041870117188	1738.358764648438	-303.2297058105465	472.5708618164062	1681.503173828125	-226.5538482666012	468.5466918945312	1688.686767578125	-373.9333496093746	339.2513427734375	1513.032470703125	-306.9974975585934	266.9581909179688	1315.13232421875	-246.9396820068357	266.4458923339844	1324.560302734375	-389.1246948242185	516.593505859375	1350.166870117188	-309.5003356933591	413.7717895507812	1461.7255859375	-137.0917510986325	370.7134399414062	1301.194946289062	-52.6550521850583	429.7911376953125	1214.060180664062	-49.55693435668918	308.3040466308594	1218.953369140625	-42.96771621704075	352.8177490234375	1111.868041992188	-38.70973587036108	327.9737548828125	1109.7529296875	-117.9090347290037	453.2174377441406	927.3450927734375	-40.91040039062479	492.0075073242188	862.900390625	-84.38401031494122	424.21826171875	838.7028198242188	-46.95295333862286	494.0140686035156	773.0618286132812	-31.07462692260725	419.4633483886719	1472.484741210938	-474.940032958984	397.281982421875	1310.557373046875	-576.2318725585934	458.9488830566406	1229.7392578125	-578.0499877929685	338.6330261230469	1234.54931640625	-605.1857910156248	396.9202270507812	1129.534057617188	-616.6520996093748	343.3866577148438	1121.652465820313	-559.8963623046873	503.8216247558594	954.1989135742189	-606.179016113281	534.8695678710938	891.7531738281251	-555.8890991210935	491.6969299316406	873.3526611328126	-620.8702392578123	564.2869873046875	813.2960205078126	-604.2493896484373	413.1715698242188	1062.649169921875	-149.5360565185545	282.6504516601562	1037.61279296875	-320.9869995117185	398.6913757324219	1056.59130859375	-496.6911010742185	376.3966369628906	919.4948120117188	-136.4841613769529	465.4951477050781	644.1051635742188	-172.5478668212889	518.5181274414062	670.3145141601562	-172.1723632812499	536.84423828125	572.8079223632812	-214.6870117187499	474.9945678710938	565.5882568359375	-197.8424835205077	471.3731384277344	342.1439514160157	-204.8938751220702	524.704833984375	321.8188171386719	-225.1710662841796	517.94580078125	238.4187774658204	-246.1380615234374	455.7191772460938	244.6682586669922	-230.4225158691406	404.1551208496094	41.11576080322273	-321.4577941894531	567.9097290039062	19.19792938232427	-237.9231109619141	622.7195434570312	31.51787567138679	-340.8504333496094	362.7926025390625	939.4929199218751	-501.1871948242185	463.4159545898438	654.3291015625001	-513.0115966796874	408.9961547851562	673.8444213867189	-519.4986572265624	399.9230041503906	569.0326538085939	-502.198760986328	463.2709655761719	572.2835083007814	-502.6635131835936	282.3224182128906	360.9631958007814	-502.2742919921874	231.2090759277344	393.891326904297	-502.7307739257811	161.9404602050781	342.0722045898439	-485.2297973632812	205.7082672119141	294.9562072753907	-481.3215026855468	5.45882511138916	271.9266357421876	-411.6600036621093	41.38003921508789	103.5745544433595	-480.7699279785156	64.985595703125	78.20544433593759	-386.5323181152344	
92	0.364	531.6365356445312	1739.188354492188	-302.9686889648434	478.0839538574219	1682.458251953125	-226.360443115234	473.86767578125	1689.625854492188	-373.6586303710934	344.5839538574219	1513.9677734375	-306.720794677734	272.3758850097656	1315.936889648438	-246.3602905273435	270.7840881347656	1325.119262695312	-387.9633483886716	522.0220336914062	1351.211791992188	-309.3659973144528	419.4183044433594	1462.711791992188	-137.0258483886716	377.0428771972656	1302.235595703125	-52.23036575317354	436.0883178710938	1215.051879882812	-49.56666946411106	314.39990234375	1219.82275390625	-42.28765487670871	359.8550720214844	1112.640869140625	-38.1005249023435	333.9867858886719	1110.711303710938	-116.9520568847654	460.2176513671875	928.64208984375	-41.15567398071268	498.9471740722656	864.422119140625	-84.90348052978496	431.2130737304688	839.8933715820312	-46.89938735961896	501.7429809570312	774.637451171875	-31.6747741699217	424.3939514160156	1473.458374023438	-474.7893066406247	402.3253173828125	1311.571166992188	-575.9394531249997	463.6442565917969	1230.793579101563	-577.7760620117185	343.69921875	1235.441284179688	-604.9892578124998	401.0885009765625	1130.952392578125	-616.9385986328123	348.2149658203125	1122.67041015625	-560.0274658203123	508.2136535644531	955.0951538085939	-606.1221923828123	539.1049194335938	892.3229980468751	-555.8646850585935	495.9707336425781	874.0669555664064	-620.9416503906248	568.406494140625	813.7941284179689	-604.3692626953123	418.7479858398438	1063.750244140625	-148.9979095458982	287.8768005371094	1038.691162109375	-320.4508056640623	403.6867370605469	1057.085571289062	-496.4569396972654	381.1979370117188	920.2532348632812	-136.2579498291014	468.0083923339844	644.4420776367188	-172.1093292236327	520.87109375	670.1830444335938	-172.5051116943358	539.7957763671875	572.7765502929688	-214.282989501953	476.9506530761719	565.8662719726562	-197.3989410400389	472.5137023925781	342.1479492187501	-204.5064392089843	525.6995849609375	321.7395935058594	-225.0839385986327	518.7473754882812	238.2405242919922	-246.1372528076171	456.4966125488281	244.7548522949219	-230.1853790283203	404.1884155273438	41.12224960327156	-320.6768188476562	567.9171142578125	19.15710449218755	-237.8571929931641	622.7760620117188	31.46324920654304	-340.769287109375	368.0460205078125	940.5501708984376	-500.6331787109373	471.8836364746094	655.8551025390626	-512.9304809570311	417.2946166992188	675.1464233398439	-519.1101074218749	409.3363952636719	570.1091918945314	-502.3702087402343	472.5853271484375	573.9768676757814	-502.7758789062499	293.1032104492188	362.1481018066407	-502.2296142578124	241.6753692626953	394.6564941406251	-502.1617736816405	172.8128509521484	342.7158203125001	-484.7967834472656	216.6141357421875	295.6634521484376	-481.3704833984374	15.83483028411865	271.5588684082032	-411.0588684082031	55.13677978515625	104.1678161621095	-481.3043518066406	79.14804840087891	78.36508178710946	-387.23388671875	
93	0.368	537.1348876953125	1740.107788085938	-302.762298583984	483.6177978515625	1683.42529296875	-225.9314422607418	479.18701171875	1690.62841796875	-373.3821411132809	350.277099609375	1514.804443359375	-306.4765624999997	277.9084777832031	1317.030639648438	-246.2231750488278	276.0314636230469	1325.648559570312	-386.9578857421872	527.3051147460938	1351.959594726562	-309.8514404296872	425.0504150390625	1463.673706054688	-136.7482452392575	383.2407836914062	1303.25341796875	-52.00241088867158	442.4087219238281	1216.238647460938	-49.2940711975095	320.7313537597656	1220.911010742188	-41.5577430725095	366.0245056152344	1113.601196289062	-37.57828521728491	340.6744995117188	1112.10107421875	-116.4645233154294	467.2584228515625	929.9449462890625	-41.37252807617167	505.8805541992188	865.9574584960938	-85.44895172119121	438.3570556640625	841.3834838867188	-46.6915969848631	509.5363464355469	776.3126220703125	-32.337993621826	429.2864074707031	1474.387084960938	-474.5779113769528	407.2740478515625	1312.511962890625	-575.4031982421872	468.7392272949219	1231.561401367188	-577.3762207031248	348.5043029785156	1236.536865234375	-604.8793334960935	406.0947875976562	1132.209228515625	-616.5927124023435	352.9633483886719	1123.821655273438	-559.6959838867185	512.630615234375	956.1057739257814	-606.2056884765623	543.2003173828125	893.0861206054689	-555.6955566406248	500.3938293457031	875.0507812500001	-621.0633544921873	572.5020141601562	814.4671630859376	-604.2176513671873	423.8746643066406	1064.832397460938	-149.0797882080076	293.0061645507812	1039.806762695312	-319.8815307617185	408.6024475097656	1057.924194335938	-496.1651611328123	386.1278381347656	921.1453247070312	-135.877975463867	470.4921264648438	644.7686157226562	-171.711212158203	523.8685913085938	670.3372802734375	-170.9235992431639	541.861328125	572.2857666015625	-213.6402435302733	478.8316955566406	566.2130737304688	-196.9204559326171	473.52880859375	342.1300354003907	-204.2185974121093	526.642822265625	321.5583801269532	-224.8880462646484	519.380859375	238.2279052734376	-246.0378875732421	457.2361145019531	244.8662109375001	-230.0028533935546	404.2397766113281	41.40227127075202	-320.8078002929688	567.885986328125	19.12702369689947	-237.7517852783203	622.8550415039062	31.50606727600105	-340.7021484375	373.119384765625	941.4802246093751	-500.2986145019529	480.3248596191406	657.5054321289064	-512.7281494140624	425.5529174804688	676.1500244140626	-518.6950683593749	418.4374694824219	570.5729980468751	-501.9669799804686	481.9052734375	575.5603027343751	-502.6204223632811	303.9384155273438	363.3050842285157	-501.9741821289062	252.5152587890625	395.5273437500001	-501.7700805664061	183.5963592529297	343.203094482422	-484.4065551757812	227.5515594482422	296.2999877929689	-481.1956481933593	26.43117713928223	270.8339843750001	-410.5942993164062	68.28618621826172	104.5657958984376	-481.7716369628906	93.33248901367188	78.63524627685555	-388.0374145507812	
